<svg width="162" height="29" viewBox="0 0 162 29" fill="none" xmlns="http://www.w3.org/2000/svg">
<path d="M90.0677 8.47385H94.8585V16.2881C94.8585 16.5781 95.443 17.8435 95.7151 18.0826C96.5487 18.8132 98.3826 18.8226 99.2622 18.1673C99.5401 17.9602 100.224 16.7231 100.224 16.4764V8.47385H105.015V17.4179C105.015 18.3726 104.191 20.1218 103.463 20.7884C100.544 23.4679 90.8304 23.3059 90.2574 18.0769C89.5503 18.6644 89.1996 19.621 88.5423 20.2499C84.5103 24.1024 75.5323 22.854 74.21 16.9942C73.8976 15.6065 74.1928 14.52 74.0663 13.1831L65.4428 29H60.3645C61.384 25.7481 63.8177 22.967 64.774 19.6944L58.4482 8.47574H64.0055L67.5527 15.068L68.1103 14.6744L70.9043 8.47574H76.4617L75.3138 11.1119C78.5582 7.35726 84.9875 6.93736 88.6113 10.3775C89.0578 10.8031 89.4123 11.7634 90.0677 11.8651V8.47385ZM81.5821 12.0929C79.3036 12.5561 78.3608 15.4427 79.7175 17.2296C81.0743 19.0165 84.61 18.6607 85.3209 16.5179C86.1583 13.9985 84.334 11.5318 81.5821 12.0929Z" fill="black"/>
<path d="M4.5992 8.47385V9.79193C7.44495 7.44576 11.3658 7.42504 14.0927 9.97269L15.7139 12.4281V8.7563C17.0094 8.1481 18.9027 8.59436 20.3802 8.5021L20.683 8.78266C20.2691 11.3265 21.2023 9.51325 22.1662 8.88246C23.3141 8.12927 24.5942 7.96546 25.951 8.11233C26.4052 8.16128 26.798 8.43996 27.3058 8.47574C28.6492 8.56988 30.0749 8.40418 31.4279 8.47574V22.0331H26.637V11.8651L25.7766 12.7614C24.3336 11.8858 22.0685 11.69 21.1084 13.3055C20.1483 14.9211 20.9628 19.235 20.706 21.3834C20.6734 21.6583 20.683 21.8673 20.4089 22.0331H16.0014L15.7139 21.7506V18.0788L14.6427 19.7566C12.276 22.8088 8.04668 23.3662 4.97863 20.9937L4.5992 21.1838V28.9981H0V8.47385H4.5992ZM7.04061 12.0967C4.59728 12.5486 3.82692 15.6423 5.36382 17.4198C6.67459 18.9375 10.0991 18.5571 10.7775 16.5197C11.6417 13.9194 9.8442 11.577 7.04061 12.0967Z" fill="black"/>
<path d="M126.67 3.38986C126.97 3.57816 126.946 7.63594 126.67 8.28179C126.855 8.23472 127.08 8.47385 127.149 8.47385H134.143V10.1685C135.709 8.58871 137.068 7.85813 139.398 8.11233C139.852 8.16128 140.245 8.43996 140.753 8.47574C142.096 8.56988 143.522 8.40418 144.875 8.47574V22.033H140.371L140.084 21.7506V11.8651C139.212 13.2829 138.369 12.0703 137.104 12.0458C136.366 12.0326 135.276 12.4262 134.826 13.0043C134.722 13.1379 134.143 14.1472 134.143 14.2169V21.7487C134.023 21.9351 133.879 21.9916 133.664 22.0312C132.422 22.2552 130.577 21.8749 129.251 22.0255C128.778 22.0801 128.461 22.3607 128.097 22.3983C125.878 22.6262 123.726 22.308 122.67 20.2198C121.492 17.8905 122.337 14.9117 122.046 12.3603L121.758 12.0778L120.277 12.027C119.646 11.8255 120.1 9.10653 119.962 8.47385C120.112 8.32698 121.793 8.7563 122.072 8.19329V3.39174H126.672L126.67 3.38986ZM126.986 12.0797C126.465 12.2341 126.861 12.848 126.871 13.266C126.911 15.1847 126.037 19.8808 129.328 17.5798V12.3584C129.18 11.9178 127.386 11.9592 126.988 12.0778L126.986 12.0797Z" fill="black"/>
<path d="M53.0824 3.38986V8.19141C53.803 8.77701 55.0486 8.34958 55.9569 8.47385V12.0515L53.1668 12.2285C53.1993 13.4731 52.3964 18.2765 54.33 18.2539C54.765 18.2483 55.154 17.625 55.4759 18.0788L56.5069 21.6244C53.6995 22.9915 49.9301 22.9538 48.7189 19.6379C48.6327 19.4007 48.2935 18.3086 48.2935 18.173V12.0534L47.1437 12.3358V22.033H42.3529V13.6539C42.3529 13.5334 41.7684 12.5297 41.5768 12.3452C39.8636 10.6826 36.9871 12.4017 36.9871 14.4071V21.5623C36.9871 21.6282 37.3263 21.7713 36.8913 22.033H32.4838L32.1963 21.7506V8.7563L32.4838 8.47385H36.8913L37.0063 9.29106L37.4605 9.59986C39.9191 7.07858 44.0603 7.88449 46.3753 10.1666V8.47197C46.5113 8.33828 48.0329 8.73747 48.2935 8.19141V3.67231L48.581 3.38986H53.0844H53.0824Z" fill="black"/>
<path d="M145.833 28.9981V8.47385H150.336C150.771 8.77889 150.608 9.33437 150.626 9.79193C153.839 6.86769 158.992 7.69243 161.056 11.4979C164.255 17.3916 158.828 24.737 152.212 21.8824C151.812 21.7092 150.808 20.9108 150.718 20.9052C150.246 20.8826 150.622 21.3477 150.622 21.3721V28.7157L150.334 28.9981H145.831H145.833ZM152.874 12.0967C150.451 12.5448 149.687 15.8099 151.314 17.4932C152.394 18.6117 154.648 18.591 155.8 17.6062C158.324 15.4502 156.409 11.4414 152.874 12.0967Z" fill="black"/>
<path d="M110.189 8.47385V10.1685C110.973 9.87289 111.387 9.14984 112.079 8.72994C113.65 7.77151 115.982 7.79222 117.446 8.96531L115.745 12.8065C114.102 12.1513 112.266 11.4301 110.958 13.089C110.785 13.3074 110.189 14.424 110.189 14.5935V22.0312H105.686L105.44 21.7487C105.435 21.6715 105.59 21.6075 105.59 21.5604V8.47385H110.189Z" fill="black"/>
<path d="M142.142 0.0438411C146.084 -0.575653 146.734 5.57409 142.65 5.62682C139.156 5.67389 138.769 0.572953 142.142 0.0438411Z" fill="black"/>
<path d="M28.699 0.0400752C32.6179 -0.515398 33.1372 5.53079 29.2068 5.63058C25.6865 5.71908 25.2649 0.527762 28.699 0.0400752Z" fill="black"/>
</svg>
